<svg enable-background="new 0 0 1280 512" viewBox="0 0 1280 512" xmlns="http://www.w3.org/2000/svg">
  <g fill="#f0fa00">
    <circle cx="256" cy="256" opacity=".2" r="256"/>
		<circle cx="512" cy="256" opacity=".4" r="256"/>
		<circle cx="768" cy="256" opacity=".6" r="256"/>
	</g>
	<circle cx="1024" cy="256" fill="#fff" r="256"/>
  <g fill="#f0fa00">
    <path d="m1247.9 131.9c-3.1 2.1-6.4 4.1-9.6 6-35 20.2-75.8 25.6-114.9 15.1l-62.2-16.7c-32.3-8.7-66-4.2-95 12.5s-49.7 43.7-58.3 76c-8.7 32.3-4.2 66 12.5 95s43.7 49.7 76 58.3l62.2 16.7c39.1 10.5 71.7 35.5 91.9 70.5 1.9 3.3 3.7 6.6 5.3 9.9 54.9-33 97.6-86.4 115.5-153.2 17.8-66.5 7.6-134.1-23.4-190.1z"/>
		<path d="m1051.8 420.3-62.2-16.7c-39.1-10.5-71.7-35.5-91.9-70.5s-25.6-75.8-15.1-114.9 35.5-71.7 70.5-91.9 75.8-25.6 114.9-15.1l62.2 16.7c32.3 8.7 66 4.2 95-12.5 3-1.7 6-3.6 8.9-5.6-33.3-47.9-83.1-84.7-143.8-100.9-136.5-36.6-276.9 44.5-313.6 181-36.6 136.5 44.5 276.9 181 313.6 60.7 16.3 122.1 9.3 174.9-15.5-1.5-3.1-3.1-6.2-4.8-9.2-16.7-29.1-43.7-49.9-76-58.5z"/>
	</g>
</svg>
